<?xml version="1.0" encoding="UTF-8"?>
<!-- Generator: Adobe Illustrator 15.0.1, SVG Export Plug-In . SVG Version: 6.00 Build 0)  -->
<svg width="243.8" height="243.8" version="1.1" viewBox="0 0 243.8 243.8" xmlns="http://www.w3.org/2000/svg" xmlns:cc="http://creativecommons.org/ns#" xmlns:dc="http://purl.org/dc/elements/1.1/" xmlns:rdf="http://www.w3.org/1999/02/22-rdf-syntax-ns#">
 <metadata>
  <rdf:RDF>
   <cc:Work rdf:about="">
    <dc:format>image/svg+xml</dc:format>
    <dc:type rdf:resource="http://purl.org/dc/dcmitype/StillImage"/>
   </cc:Work>
  </rdf:RDF>
 </metadata>
 <path d="m131.13 141.78-49.316-49.32 49.316-49.313 16.44 16.437-32.88 32.876 16.439 16.44 49.316-49.313-42.96-42.96c-3.508-3.511-9.198-3.511-12.709 0l-69.483 69.483c-3.508 3.508-3.508 9.198 0 12.709l69.484 69.481c3.511 3.511 9.201 3.511 12.709 0l69.484-69.481c3.508-3.511 3.508-9.201 0-12.709l-10.087-10.084z" fill="#008080"/>
 <g aria-label="blog2epub">
  <path d="m11.18 186.65v12.469q2.7188-3.1172 6.4453-3.1172 4.3594 0 7.0781 3.3047 2.7422 3.3047 2.7422 8.4609 0 5.5078-2.7422 8.6719-2.7188 3.1406-6.8906 3.1406-3.75 0-6.6328-2.9297v2.6016h-11.18v-5.2266h3.9375v-22.148h-3.9375v-5.2266zm8.8359 21.07q0-2.9062-1.1953-4.3828-1.1953-1.4766-3.1641-1.4766-1.875 0-3.2109 1.4531-1.3359 1.4531-1.3359 4.7344 0 2.7656 1.2422 4.3359 1.2656 1.5703 3.2344 1.5703 1.8984 0 3.1641-1.5234 1.2656-1.5234 1.2656-4.7109zm9.8672 11.531v-5.2266h3.5625v-22.148h-3.5625v-5.2266h10.805v27.375h3.2578v5.2266zm28.992 0.51562q-5.0156 0-8.4844-3.1641-3.4453-3.1875-3.4453-8.7188t3.4453-8.6953q3.4688-3.1875 8.4844-3.1875 5.0391 0 8.4844 3.1875 3.4453 3.1641 3.4453 8.6953 0 5.4609-3.4219 8.6719-3.3984 3.2109-8.5078 3.2109zm-0.02344-5.625q2.0156 0 3.2578-1.5469 1.2656-1.5469 1.2656-4.8516 0-2.9062-1.2188-4.5234-1.2188-1.6406-3.3047-1.6406-4.4766 0-4.4766 6.4688 0 2.6484 1.1016 4.3828 1.125 1.7109 3.375 1.7109zm42.984-17.578v5.25h-3.75v16.758q0 11.227-11.859 11.227-6.7969 0-10.125-2.4609l3.5156-4.8047q2.7422 1.6875 5.5078 1.6875 2.4141 0 4.0547-1.2422 1.6641-1.2422 1.6641-4.8281v-1.7344q-3.5391 3.1641-6.8906 3.1641-3.9375 0-6.7266-3.2812-2.7656-3.3047-2.7656-8.4141 0-5.1328 2.8594-8.3906 2.8594-3.2812 6.9844-3.2812 3.9609 0 6.5391 3.1172v-2.7656zm-10.969 11.414q0-2.7422-1.2188-4.3359t-3.3281-1.5938q-2.1562 0-3.3047 1.6406-1.125 1.6406-1.125 4.2188 0 2.5781 1.1719 4.2188 1.1953 1.6172 3.2578 1.6172 1.8984 0 3.2109-1.5 1.3359-1.5234 1.3359-4.2656z" fill="#fff"/>
  <path d="m126.09 209.79-0.28125 9.4688h-20.883q0-4.2656 0.67969-6.6094 0.70312-2.3438 2.2734-4.5469 1.5938-2.2031 4.4297-4.8281 3.7266-3.4219 4.8984-5.0156 1.1953-1.6172 1.1953-3.6328 0-1.5-0.89062-2.4609-0.89063-0.98438-2.2266-0.98438-1.9453 0-2.8828 1.6172-0.91406 1.5938-1.0547 5.2266l-5.9766-0.28125q0-4.7109 1.4062-7.1016 1.4062-2.3906 3.8203-3.4688 2.4141-1.0781 5.25-1.0781 4.6641 0 7.3125 2.5781 2.6719 2.5781 2.6719 6.4219 0 2.0625-0.82031 3.8203-0.79688 1.7344-2.0391 2.9297-1.2188 1.1719-4.3359 3.3984-4.6875 3.3516-5.8828 5.3203-1.1953 1.9688-1.4062 3.4688h9.4922v-4.2422z" fill="#f00"/>
  <path d="m149.11 212.41 5.625 1.8047q-3.5391 5.5547-11.062 5.5547-6 0-9.375-3.1641-3.3516-3.1641-3.3516-8.3203 0-5.25 3.4688-8.7656 3.4688-3.5156 8.8359-3.5156 3.8906 0 6.7266 1.9688t3.9375 4.8984q1.1016 2.9297 1.1016 6.5391h-16.898q0.16406 3.0938 1.9453 4.3828 1.8047 1.2891 3.7969 1.2891 2.6016 0 5.25-2.6719zm-1.3828-7.0312q-0.25781-1.8984-1.5-3.2344-1.2188-1.3359-3.3516-1.3359-3.9844 0-4.6406 4.5703zm24.328 18.891v5.2266h-15.609v-5.2266h3.8203v-22.453h-3.1875v-5.25h10.43v2.8359q3.0234-3.1875 6.75-3.1875 4.5 0 7.0781 3.5859 2.6016 3.5625 2.6016 8.3203 0 5.0391-2.6719 8.3438-2.6719 3.3047-7.125 3.3047-3.6328 0-6.6328-2.8359v7.3359zm4.4531-16.289q0-2.9766-1.2422-4.4531-1.2188-1.4766-3.2344-1.4766-2.0391 0-3.3281 1.5234-1.2656 1.5-1.2656 4.5 0 2.6953 1.2656 4.3359 1.2656 1.6406 3.375 1.6406 1.9453 0 3.1875-1.4766 1.2422-1.4766 1.2422-4.5938zm37.992 6.0469v5.2266h-10.898v-1.9219q-3.2578 2.25-6.6094 2.25-3.2812 0-5.1562-1.8281-1.8516-1.8516-1.8516-5.2031v-10.734h-3.3984v-5.25h10.617v14.133q0 1.6875 0.51563 2.3203 0.51562 0.60938 1.875 0.60938 1.8281 0 4.0078-1.6172v-10.195h-3.4922v-5.25h10.734v17.461zm13.031-27.375v12.469q2.7188-3.1172 6.4453-3.1172 4.3594 0 7.0781 3.3047 2.7422 3.3047 2.7422 8.4609 0 5.5078-2.7422 8.6719-2.7188 3.1406-6.8906 3.1406-3.75 0-6.6328-2.9297v2.6016h-11.18v-5.2266h3.9375v-22.148h-3.9375v-5.2266zm8.8359 21.07q0-2.9062-1.1953-4.3828-1.1953-1.4766-3.1641-1.4766-1.875 0-3.2109 1.4531-1.3359 1.4531-1.3359 4.7344 0 2.7656 1.2422 4.3359 1.2656 1.5703 3.2344 1.5703 1.8984 0 3.1641-1.5234 1.2656-1.5234 1.2656-4.7109z" fill="#008080"/>
 </g>
</svg>
