<?xml version="1.0" encoding="UTF-8" standalone="no"?>
<!-- Generator: Adobe Illustrator 15.0.1, SVG Export Plug-In . SVG Version: 6.00 Build 0)  -->

<svg
   version="1.1"
   width="243.797"
   height="215.80847"
   viewBox="0 0 243.79699 215.80847"
   id="svg10"
   xmlns="http://www.w3.org/2000/svg"
   xmlns:svg="http://www.w3.org/2000/svg"
   xmlns:rdf="http://www.w3.org/1999/02/22-rdf-syntax-ns#"
   xmlns:cc="http://creativecommons.org/ns#"
   xmlns:dc="http://purl.org/dc/elements/1.1/">
  <metadata
     id="metadata16">
    <rdf:RDF>
      <cc:Work
         rdf:about="">
        <dc:format>image/svg+xml</dc:format>
        <dc:type
           rdf:resource="http://purl.org/dc/dcmitype/StillImage" />
      </cc:Work>
    </rdf:RDF>
  </metadata>
  <defs
     id="defs14" />
  <path
     style="fill:#008080"
     id="path8"
     d="m 131.13131,127.78625 -49.315999,-49.32 49.315999,-49.313 16.44,16.437 -32.88,32.876 16.439,16.44 49.316,-49.313 -42.96,-42.96 c -3.508,-3.511 -9.198,-3.511 -12.709,0 l -69.482999,69.483 c -3.508,3.508 -3.508,9.198 0,12.709 l 69.483999,69.481 c 3.511,3.511 9.201,3.511 12.709,0 l 69.484,-69.481 c 3.508,-3.511 3.508,-9.201 0,-12.709 l -10.087,-10.084 z" />
  <g
     aria-label="blog2epub"
     id="text20"
     style="font-size:40px;letter-spacing:0px;word-spacing:0px">
    <path
       d="m 11.179688,172.66003 v 12.46875 q 2.71875,-3.11718 6.445312,-3.11718 4.359375,0 7.078125,3.30468 2.742187,3.30469 2.742187,8.46094 0,5.50781 -2.742187,8.67188 -2.71875,3.14062 -6.890625,3.14062 -3.75,0 -6.632812,-2.92969 v 2.60157 H 0 v -5.22657 H 3.9375 V 177.8866 H 0 v -5.22657 z m 8.835937,21.07032 q 0,-2.90625 -1.195313,-4.38282 -1.195312,-1.47656 -3.164062,-1.47656 -1.875,0 -3.210937,1.45313 -1.335938,1.45312 -1.335938,4.73437 0,2.76563 1.242188,4.33594 1.265625,1.57031 3.234375,1.57031 1.898437,0 3.164062,-1.52344 1.265625,-1.52343 1.265625,-4.71093 z"
       style="-inkscape-font-specification:'Rockwell Bold'"
       id="path211" />
    <path
       d="m 29.882812,205.2616 v -5.22657 h 3.5625 V 177.8866 h -3.5625 v -5.22657 H 40.6875 v 27.375 h 3.257812 v 5.22657 z"
       style="-inkscape-font-specification:'Rockwell Bold'"
       id="path213" />
    <path
       d="m 58.875,205.77722 q -5.015625,0 -8.484375,-3.16406 -3.445313,-3.1875 -3.445313,-8.71875 0,-5.53125 3.445313,-8.69531 3.46875,-3.1875 8.484375,-3.1875 5.039062,0 8.484375,3.1875 3.445312,3.16406 3.445312,8.69531 0,5.46094 -3.421875,8.67187 -3.398437,3.21094 -8.507812,3.21094 z m -0.02344,-5.625 q 2.015625,0 3.257813,-1.54687 1.265625,-1.54688 1.265625,-4.85157 0,-2.90625 -1.21875,-4.52343 -1.21875,-1.64063 -3.304688,-1.64063 -4.476562,0 -4.476562,6.46875 0,2.64844 1.101562,4.38281 1.125,1.71094 3.375,1.71094 z"
       style="-inkscape-font-specification:'Rockwell Bold'"
       id="path215" />
    <path
       d="m 101.83594,182.5741 v 5.25 h -3.750003 v 16.75781 q 0,11.22656 -11.859375,11.22656 -6.796875,0 -10.125,-2.46094 l 3.515625,-4.80468 q 2.742188,1.6875 5.507813,1.6875 2.414062,0 4.054687,-1.24219 1.664063,-1.24219 1.664063,-4.82813 v -1.73437 q -3.539063,3.16406 -6.890625,3.16406 -3.9375,0 -6.726563,-3.28125 -2.765625,-3.30469 -2.765625,-8.41406 0,-5.13281 2.859375,-8.39063 2.859375,-3.28125 6.984375,-3.28125 3.960938,0 6.539063,3.11719 v -2.76562 z m -10.968753,11.41406 q 0,-2.74219 -1.21875,-4.33594 -1.21875,-1.59375 -3.328125,-1.59375 -2.15625,0 -3.304687,1.64063 -1.125,1.64062 -1.125,4.21875 0,2.57812 1.171875,4.21875 1.195312,1.61718 3.257812,1.61718 1.898438,0 3.210938,-1.5 1.335937,-1.52343 1.335937,-4.26562 z"
       style="-inkscape-font-specification:'Rockwell Bold'"
       id="path217" />
    <path
       d="m 126.09375,195.79285 -0.28125,9.46875 h -20.88281 q 0,-4.26563 0.67969,-6.60938 0.70312,-2.34375 2.27343,-4.54687 1.59375,-2.20313 4.42969,-4.82813 3.72656,-3.42187 4.89844,-5.01562 1.19531,-1.61719 1.19531,-3.63282 0,-1.5 -0.89062,-2.46093 -0.89063,-0.98438 -2.22657,-0.98438 -1.94531,0 -2.88281,1.61719 -0.91406,1.59375 -1.05469,5.22656 l -5.97656,-0.28125 q 0,-4.71094 1.40625,-7.10156 1.40625,-2.39063 3.82031,-3.46875 2.41407,-1.07813 5.25,-1.07813 4.66407,0 7.3125,2.57813 2.67188,2.57812 2.67188,6.42187 0,2.0625 -0.82031,3.82032 -0.79688,1.73437 -2.03907,2.92968 -1.21875,1.17188 -4.33593,3.39844 -4.6875,3.35156 -5.88282,5.32031 -1.19531,1.96875 -1.40625,3.46875 h 9.49219 v -4.24218 z"
       style="-inkscape-font-specification:'Rockwell Bold';fill:#ff0000"
       id="path219" />
    <path
       d="m 149.10937,198.41785 5.625,1.80468 q -3.53906,5.55469 -11.0625,5.55469 -6,0 -9.375,-3.16406 -3.35156,-3.16406 -3.35156,-8.32031 0,-5.25 3.46875,-8.76563 3.46875,-3.51562 8.83594,-3.51562 3.89062,0 6.72656,1.96875 2.83594,1.96875 3.9375,4.89843 1.10156,2.92969 1.10156,6.53907 h -16.89843 q 0.16406,3.09375 1.94531,4.38281 1.80469,1.28906 3.79687,1.28906 2.60157,0 5.25,-2.67187 z m -1.38281,-7.03125 q -0.25781,-1.89844 -1.5,-3.23438 -1.21875,-1.33594 -3.35156,-1.33594 -3.98438,0 -4.64063,4.57032 z"
       style="-inkscape-font-specification:'Rockwell Bold';fill:#008080"
       id="path221" />
    <path
       d="m 172.05469,210.27722 v 5.22656 h -15.60938 v -5.22656 h 3.82031 V 187.8241 h -3.1875 v -5.25 h 10.42969 v 2.83593 q 3.02344,-3.1875 6.75,-3.1875 4.5,0 7.07813,3.58594 2.60156,3.5625 2.60156,8.32031 0,5.03907 -2.67188,8.34375 -2.67187,3.30469 -7.125,3.30469 -3.63281,0 -6.63281,-2.83594 v 7.33594 z m 4.45312,-16.28906 q 0,-2.97656 -1.24219,-4.45313 -1.21875,-1.47656 -3.23437,-1.47656 -2.03906,0 -3.32813,1.52344 -1.26562,1.5 -1.26562,4.5 0,2.69531 1.26562,4.33594 1.26563,1.64062 3.375,1.64062 1.94532,0 3.1875,-1.47656 1.24219,-1.47656 1.24219,-4.59375 z"
       style="-inkscape-font-specification:'Rockwell Bold';fill:#008080"
       id="path223" />
    <path
       d="m 214.5,200.03503 v 5.22657 h -10.89844 v -1.92188 q -3.25781,2.25 -6.60937,2.25 -3.28125,0 -5.15625,-1.82812 -1.85157,-1.85157 -1.85157,-5.20313 V 187.8241 h -3.39843 v -5.25 h 10.61718 v 14.13281 q 0,1.6875 0.51563,2.32031 0.51562,0.60938 1.875,0.60938 1.82812,0 4.00781,-1.61719 V 187.8241 h -3.49219 v -5.25 h 10.73438 v 17.46093 z"
       style="-inkscape-font-specification:'Rockwell Bold';fill:#008080"
       id="path225" />
    <path
       d="m 227.53125,172.66003 v 12.46875 q 2.71875,-3.11718 6.44531,-3.11718 4.35938,0 7.07813,3.30468 2.74218,3.30469 2.74218,8.46094 0,5.50781 -2.74218,8.67188 -2.71875,3.14062 -6.89063,3.14062 -3.75,0 -6.63281,-2.92969 v 2.60157 h -11.17969 v -5.22657 h 3.9375 V 177.8866 h -3.9375 v -5.22657 z m 8.83594,21.07032 q 0,-2.90625 -1.19532,-4.38282 -1.19531,-1.47656 -3.16406,-1.47656 -1.875,0 -3.21094,1.45313 -1.33593,1.45312 -1.33593,4.73437 0,2.76563 1.24218,4.33594 1.26563,1.57031 3.23438,1.57031 1.89844,0 3.16406,-1.52344 1.26563,-1.52343 1.26563,-4.71093 z"
       style="-inkscape-font-specification:'Rockwell Bold';fill:#008080"
       id="path227" />
  </g>
</svg>
